HIERARCHY
ROOT Hips
{
  OFFSET 36.8678 92.9152 21.303
  CHANNELS 6 Xposition Yposition Zposition Zrotation Xrotation Yrotation
  JOINT spine
  {
    OFFSET 0 7.4756 0.429885
    CHANNELS 3 Zrotation Xrotation Yrotation
    JOINT spine1
    {
      OFFSET 0 9.92301 0
      CHANNELS 3 Zrotation Xrotation Yrotation
      JOINT spine2
      {
        OFFSET 0 9.50804 0
        CHANNELS 3 Zrotation Xrotation Yrotation
        JOINT Neck
        {
          OFFSET 0 24.4111 1.16384
          CHANNELS 3 Zrotation Xrotation Yrotation
          JOINT Head
          {
            OFFSET 0 7.37523 0
            CHANNELS 3 Zrotation Xrotation Yrotation
            End Site
            {
              OFFSET 0 17.8522 -5.88741
            }
          }
        }
        JOINT RightShoulder
        {
          OFFSET -4.00356 10.2679 -0.557468
          CHANNELS 3 Zrotation Xrotation Yrotation
          JOINT RightArm
          {
            OFFSET 0 13.4673 0
            CHANNELS 3 Zrotation Xrotation Yrotation
            JOINT RightArmRoll
            {
              OFFSET 0 6.79857 0
              CHANNELS 3 Zrotation Xrotation Yrotation
              JOINT RightForeArm
              {
                OFFSET 0 19.8018 0
                CHANNELS 3 Zrotation Xrotation Yrotation
                JOINT RightForeArmRoll
                {
                  OFFSET 0 7.62905 0
                  CHANNELS 3 Zrotation Xrotation Yrotation
                  JOINT RightHand
                  {
                    OFFSET 0 15.3098 0
                    CHANNELS 3 Zrotation Xrotation Yrotation
                    End Site
                    {
                      OFFSET 0 0 0
                    }
                  }
                }
              }
            }
          }
        }
        JOINT LeftShoulder
        {
          OFFSET 4.00356 10.2679 -0.557468
          CHANNELS 3 Zrotation Xrotation Yrotation
          JOINT LeftArm
          {
            OFFSET 0 13.4673 0
            CHANNELS 3 Zrotation Xrotation Yrotation
            JOINT LeftArmRoll
            {
              OFFSET 0 6.79857 0
              CHANNELS 3 Zrotation Xrotation Yrotation
              JOINT LeftForeArm
              {
                OFFSET 0 19.8018 0
                CHANNELS 3 Zrotation Xrotation Yrotation
                JOINT LeftForeArmRoll
                {
                  OFFSET 0 7.62905 0
                  CHANNELS 3 Zrotation Xrotation Yrotation
                  JOINT LeftHand
                  {
                    OFFSET 0 15.3098 0
                    CHANNELS 3 Zrotation Xrotation Yrotation
                    End Site
                    {
                      OFFSET 0 0 0
                    }
                  }
                }
              }
            }
          }
        }
      }
    }
  }
  JOINT RightUpLeg
  {
    OFFSET -6.62609 -1.21505 -1.01927
    CHANNELS 3 Zrotation Xrotation Yrotation
    JOINT RightUpLegRoll
    {
      OFFSET 0 17.9517 0
      CHANNELS 3 Zrotation Xrotation Yrotation
      JOINT RightLeg
      {
        OFFSET 0 -22.2304 0
        CHANNELS 3 Zrotation Xrotation Yrotation
        JOINT RightLegRoll
        {
          OFFSET 0 22.3032 0
          CHANNELS 3 Zrotation Xrotation Yrotation
          JOINT RightFoot
          {
            OFFSET 0 18.5636 0
            CHANNELS 3 Zrotation Xrotation Yrotation
            JOINT RightToeBase
            {
              OFFSET 0 15.5183 0
              CHANNELS 3 Zrotation Xrotation Yrotation
              End Site
              {
                OFFSET 0.00657761 7.51539 -0.866263
              }
            }
          }
        }
      }
    }
  }
  JOINT LeftUpLeg
  {
    OFFSET 6.62609 -1.21505 -1.01927
    CHANNELS 3 Zrotation Xrotation Yrotation
    JOINT LeftUpLegRoll
    {
      OFFSET 0 17.9518 0
      CHANNELS 3 Zrotation Xrotation Yrotation
      JOINT LeftLeg
      {
        OFFSET 0 22.2303 0
        CHANNELS 3 Zrotation Xrotation Yrotation
        JOINT LeftLegRoll
        {
          OFFSET 0 22.5093 0
          CHANNELS 3 Zrotation Xrotation Yrotation
          JOINT LeftFoot
          {
            OFFSET 0 18.3575 0
            CHANNELS 3 Zrotation Xrotation Yrotation
            JOINT LeftToeBase
            {
              OFFSET 0 15.5183 0
              CHANNELS 3 Zrotation Xrotation Yrotation
              End Site
              {
                OFFSET -0.029478 7.51538 -0.866263
              }
            }
          }
        }
      }
    }
  }
}
MOTION
Frames: 9
Frame Time: 0.00208333
41.7294 93.2931 17.9448 2.1621 0.591907 71.4536 -0.219177 -0.523188 0.471248 -0.428765 2.93865 0.955777 -0.44074 4.58361 0.963722 -10.8522 3.57272 -1.49216 14.6749 2.51484 -2.38825 57.36 -3.34346 -1.94787 152.913 38.3684 -97.8279 -1.24473e-005 6.12966e-008 -8.67512e-006 28.7988 65.7803 -17.3589 -3.50239e-006 1.05678e-005 -3.00499 8.02891 -4.95116 0.697419 -71.4189 -1.78594 2.3362 -66.5466 56.8585 15.8213 -4.01395e-006 -2.3534e-006 4.84032e-006 -38.7931 20.9425 5.43595 -1.00895e-005 -9.75714e-007 3.00728 -8.03085 -4.95168 -0.697757 -178.727 -0.0673327 -1.2375 180 7.01546e-015 178.921 177.49 9.25811 179.797 1.42281e-006 -2.21072e-005 0.167301 -19.9621 69.665 21.0119 8.14047 25.2324 -3.48943 -179.436 10.7611 6.10143 4.54188e-006 -4.6773e-006 -0.9942 2.2197 -13.0278 0.737105 2.46362e-006 3.61397e-006 -0.0658572 17.9108 66.7831 -18.5669 -8.13058 25.233 3.48522 
41.7029 93.2945 17.9688 2.15934 0.619076 71.5185 -0.220478 -0.521836 0.471737 -0.431587 2.94249 0.957839 -0.443592 4.58746 0.965841 -10.8539 3.54537 -1.48367 14.6743 2.52837 -2.37919 57.3625 -3.32743 -1.93791 152.702 38.3175 -97.4788 -1.24473e-005 6.12967e-008 -8.67512e-006 28.8139 65.5936 -17.2884 -3.50239e-006 1.05678e-005 -3.00499 8.02891 -4.95116 0.697419 -71.3834 -1.82536 2.35174 -66.523 56.7876 15.7882 -4.01395e-006 -2.3534e-006 4.84032e-006 -38.7348 21.0064 5.45807 -1.00895e-005 -9.75714e-007 3.00728 -8.03085 -4.95168 -0.697757 -178.732 -0.0537932 -1.23562 180 7.01546e-015 178.921 177.486 9.26082 179.797 1.42281e-006 -2.21072e-005 0.167301 -19.9793 69.6826 21.0302 8.14047 25.2324 -3.48943 -179.451 10.8358 6.07792 4.54188e-006 -4.6773e-006 -0.993897 2.17433 -13.1109 0.734747 2.46362e-006 3.61397e-006 -0.0667593 17.9041 66.7738 -18.5605 -8.13058 25.233 3.48522 
41.6745 93.2935 17.9909 2.15589 0.646607 71.5844 -0.221839 -0.520561 0.472127 -0.434493 2.94622 0.959745 -0.446528 4.59119 0.967805 -10.857 3.51809 -1.47541 14.6753 2.54182 -2.37051 57.3636 -3.31117 -1.92767 152.497 38.2604 -97.1372 -1.24473e-005 6.12967e-008 -8.67512e-006 28.8322 65.4089 -17.2214 -3.50239e-006 1.05678e-005 -3.00499 8.02891 -4.95116 0.697419 -71.3492 -1.86421 2.36709 -66.4958 56.7183 15.755 -4.01395e-006 -2.3534e-006 4.84032e-006 -38.6784 21.0704 5.48044 -1.00895e-005 -9.75714e-007 3.00728 -8.03085 -4.95168 -0.697757 -178.736 -0.0389939 -1.23367 180 7.01546e-015 178.921 177.481 9.26426 179.798 1.42281e-006 -2.21072e-005 0.167301 -19.9969 69.7004 21.049 8.14047 25.2324 -3.48943 -179.465 10.9127 6.05516 4.54188e-006 -4.6773e-006 -0.993607 2.12979 -13.1948 0.732558 2.46362e-006 3.61397e-006 -0.0675941 17.8973 66.7642 -18.5538 -8.13058 25.233 3.48522 
41.6433 93.2891 18.0186 2.15195 0.674322 71.6509 -0.223243 -0.51934 0.472448 -0.437459 2.94988 0.96154 -0.449522 4.59484 0.969661 -10.8611 3.49085 -1.46731 14.6774 2.55522 -2.3621 57.3636 -3.29475 -1.91724 152.295 38.1984 -96.8015 -1.24473e-005 6.12967e-008 -8.67512e-006 28.8528 65.2256 -17.1572 -3.50239e-006 1.05678e-005 -3.00499 8.02891 -4.95116 0.697419 -71.316 -1.90264 2.38231 -66.4661 56.65 15.7218 -4.01395e-006 -2.3534e-006 4.84032e-006 -38.6233 21.1347 5.503 -1.00895e-005 -9.75714e-007 3.00728 -8.03085 -4.95168 -0.697757 -178.741 -0.0233128 -1.23167 180 7.01546e-015 178.921 177.477 9.26822 179.799 1.42281e-006 -2.21072e-005 0.167301 -20.0148 69.7184 21.068 8.14047 25.2324 -3.48943 -179.479 10.9911 6.03293 4.54188e-006 -4.6773e-006 -0.993327 2.08582 -13.2794 0.730488 2.46362e-006 3.61397e-006 -0.0683818 17.8903 66.7542 -18.5469 -8.13058 25.233 3.48522 
41.615 93.2892 18.0309 2.1477 0.702049 71.7179 -0.224671 -0.518149 0.472728 -0.44046 2.95349 0.963273 -0.452549 4.59845 0.971454 -10.8658 3.46364 -1.45931 14.6801 2.56858 -2.35384 57.3631 -3.27823 -1.90671 152.095 38.1326 -96.4699 -1.24473e-005 6.12967e-008 -8.67512e-006 28.8752 65.0432 -17.0951 -3.50239e-006 1.05678e-005 -3.00499 8.02891 -4.95116 0.697419 -71.2834 -1.94084 2.39745 -66.435 56.5823 15.6886 -4.01395e-006 -2.3534e-006 4.84032e-006 -38.5691 21.199 5.52567 -1.00895e-005 -9.75714e-007 3.00728 -8.03085 -4.95168 -0.697757 -178.746 -0.00712768 -1.22964 180 7.01546e-015 178.921 177.473 9.27248 179.8 1.42281e-006 -2.21072e-005 0.167301 -20.0328 69.7366 21.0872 8.14047 25.2324 -3.48943 -179.494 11.0704 6.01101 4.54188e-006 -4.6773e-006 -0.993052 2.04218 -13.3642 0.728485 2.46362e-006 3.61397e-006 -0.0691426 17.8833 66.7441 -18.5399 -8.13058 25.233 3.48522 
41.5834 93.2907 18.0594 2.14332 0.729618 71.7849 -0.226105 -0.516965 0.472999 -0.443469 2.95709 0.96499 -0.455585 4.60205 0.973232 -10.8707 3.43644 -1.45133 14.6829 2.58194 -2.34562 57.3624 -3.26169 -1.89614 151.897 38.064 -96.1407 -1.24473e-005 6.12966e-008 -8.67512e-006 28.8987 64.8609 -17.0342 -3.50239e-006 1.05678e-005 -3.00499 8.02891 -4.95116 0.697419 -71.2508 -1.97898 2.41258 -66.4036 56.5147 15.6556 -4.01395e-006 -2.3534e-006 4.84032e-006 -38.5151 21.2634 5.54839 -1.00895e-005 -9.75714e-007 3.00728 -8.03085 -4.95168 -0.697757 -178.752 0.00918341 -1.2276 180 7.01546e-015 178.921 177.469 9.27682 179.8 1.42281e-006 -2.21072e-005 0.167301 -20.051 69.7548 21.1064 8.14047 25.2324 -3.48943 -179.508 11.1499 5.98916 4.54188e-006 -4.6773e-006 -0.992778 1.99862 -13.4492 0.7265 2.46362e-006 3.61397e-006 -0.0698968 17.8763 66.734 -18.5329 -8.13058 25.233 3.48522 
41.5785 93.2933 18.0764 2.139 0.756866 71.8519 -0.227527 -0.515767 0.47329 -0.446461 2.96071 0.966738 -0.458605 4.60567 0.975041 -10.8752 3.40922 -1.44331 14.6855 2.59532 -2.33733 57.362 -3.2452 -1.88563 151.699 37.9937 -95.8121 -1.24473e-005 6.12967e-008 -8.67512e-006 28.9228 64.6782 -16.9739 -3.50239e-006 1.05678e-005 -3.00499 8.02891 -4.95116 0.697419 -71.218 -2.01723 2.42775 -66.3732 56.4468 15.6227 -4.01395e-006 -2.3534e-006 4.84032e-006 -38.4608 21.3277 5.5711 -1.00895e-005 -9.75714e-007 3.00728 -8.03085 -4.95168 -0.697757 -178.757 0.0252426 -1.22558 180 7.01546e-015 178.921 177.464 9.281 179.801 1.42281e-006 -2.21072e-005 0.167301 -20.0691 69.7729 21.1256 8.14047 25.2324 -3.48943 -179.523 11.229 5.96716 4.54188e-006 -4.6773e-006 -0.992501 1.95488 -13.534 0.724481 2.46362e-006 3.61397e-006 -0.0706643 17.8693 66.7239 -18.5259 -8.13058 25.233 3.48522 
41.5455 93.2846 18.0997 2.13491 0.783633 71.9184 -0.228919 -0.51453 0.47363 -0.449411 2.96438 0.968565 -0.461583 4.60934 0.976928 -10.8791 3.38197 -1.43517 14.6872 2.60873 -2.32884 57.3623 -3.22882 -1.87526 151.5 37.9226 -95.4825 -1.24473e-005 6.12967e-008 -8.67512e-006 28.9468 64.4944 -16.9133 -3.50239e-006 1.05678e-005 -3.00499 8.02891 -4.95116 0.697419 -71.1845 -2.05578 2.44301 -66.3448 56.3782 15.5901 -4.01395e-006 -2.3534e-006 4.84032e-006 -38.4057 21.3919 5.59372 -1.00895e-005 -9.75714e-007 3.00728 -8.03085 -4.95168 -0.697757 -178.762 0.0406718 -1.2236 180 7.01546e-015 178.921 177.46 9.28481 179.802 1.42281e-006 -2.21072e-005 0.167301 -20.087 69.7909 21.1447 8.14047 25.2324 -3.48943 -179.537 11.307 5.94477 4.54188e-006 -4.6773e-006 -0.992218 1.91072 -13.6183 0.722377 2.46362e-006 3.61397e-006 -0.0714655 17.8623 66.714 -18.5191 -8.13058 25.233 3.48522 
41.5232 93.2871 18.1218 2.13126 0.809761 71.9842 -0.230262 -0.513232 0.47405 -0.452294 2.96815 0.970518 -0.464495 4.61311 0.978939 -10.8817 3.35467 -1.42684 14.6877 2.62221 -2.32005 57.3637 -3.21263 -1.86511 151.299 37.8516 -95.1499 -1.24473e-005 6.12967e-008 -8.67512e-006 28.9702 64.3089 -16.852 -3.50239e-006 1.05678e-005 -3.00499 8.02891 -4.95116 0.697419 -71.1497 -2.09479 2.45843 -66.3195 56.3083 15.5578 -4.01395e-006 -2.3534e-006 4.84032e-006 -38.349 21.4559 5.61618 -1.00895e-005 -9.75714e-007 3.00728 -8.03085 -4.95168 -0.697757 -178.766 0.0550933 -1.22167 180 7.01546e-015 178.921 177.456 9.28803 179.802 1.42281e-006 -2.21072e-005 0.167301 -20.1047 69.8086 21.1635 8.14047 25.2324 -3.48943 -179.551 11.3833 5.92179 4.54188e-006 -4.6773e-006 -0.991924 1.86589 -13.702 0.720138 2.46362e-006 3.61397e-006 -0.0723205 17.8556 66.7045 -18.5125 -8.13058 25.233 3.48522 
